<svg xmlns="http://www.w3.org/2000/svg" viewBox="0 0 119.87 124.29"><title>Asset 935</title><path d="M10.24,21.52A8.75,8.75,0,0,1,3.8,19.23a8.79,8.79,0,0,1-2.29-6.49V1.3h4V12.42C5.5,16.13,7.09,18,10.26,18s4.8-1.84,4.8-5.55V1.3h4V12.74a8.79,8.79,0,0,1-2.29,6.49,8.84,8.84,0,0,1-6.51,2.29" style="fill:#434f69"/><path d="M22.56,7.84h3.49l0,1.64A3.87,3.87,0,0,1,27.68,8a5.07,5.07,0,0,1,2.41-.53,4.47,4.47,0,0,1,3.58,1.44,6.28,6.28,0,0,1,1.23,4.18V21.1H31.28V13.73c0-2.07-.79-3.1-2.37-3.1a2.47,2.47,0,0,0-2,.87A3.81,3.81,0,0,0,26.18,14V21.1H22.56Z" style="fill:#434f69"/><path d="M40,5.13a2.07,2.07,0,0,1-1.55-.61A2,2,0,0,1,37.8,3a2,2,0,0,1,.61-1.48A2.1,2.1,0,0,1,40,.94a2.13,2.13,0,0,1,1.55.6A2,2,0,0,1,42.12,3a2.05,2.05,0,0,1-.61,1.51,2.13,2.13,0,0,1-1.55.6m-1.8,2.71h3.62V21.1H38.16Z" style="fill:#434f69"/><path d="M51.6,21.52a4.81,4.81,0,0,1-3.67-1.27,5.44,5.44,0,0,1-1.2-3.87V10.84H44.15v-3h2.58V4.25h3.62V7.84h4.14v3H50.35v4.89a3.27,3.27,0,0,0,.47,2,1.89,1.89,0,0,0,1.59.6,4.88,4.88,0,0,0,2.34-.57l.39,3a5.45,5.45,0,0,1-1.55.55,9.2,9.2,0,0,1-2,.21" style="fill:#434f69"/><path d="M64.6,21.52a9.15,9.15,0,0,1-4-.84,6.19,6.19,0,0,1-2.7-2.43,7.21,7.21,0,0,1-1-3.77,7.73,7.73,0,0,1,.83-3.6,6.35,6.35,0,0,1,2.37-2.53,6.79,6.79,0,0,1,3.57-.93,6.66,6.66,0,0,1,3.3.8,5.58,5.58,0,0,1,2.21,2.28A7.33,7.33,0,0,1,70,14a8.37,8.37,0,0,1-.13,1.57H60.48c.45,2,2,3,4.51,3a10.53,10.53,0,0,0,2.33-.25,8.44,8.44,0,0,0,2-.72l.37,2.84a8.18,8.18,0,0,1-2.29.81,13.74,13.74,0,0,1-2.84.29m1.9-8.47a3.27,3.27,0,0,0-.9-2.12,2.79,2.79,0,0,0-2-.75,2.9,2.9,0,0,0-2.06.75,3.53,3.53,0,0,0-1,2.12Z" style="fill:#434f69"/><path d="M78.38,21.52a5.88,5.88,0,0,1-3.14-.86A6,6,0,0,1,73,18.2a8.08,8.08,0,0,1-.81-3.69A7.73,7.73,0,0,1,73,11,6.39,6.39,0,0,1,75.28,8.4a5.78,5.78,0,0,1,3.28-1A5.36,5.36,0,0,1,80.94,8a4.35,4.35,0,0,1,1.74,1.46V0H86.3V21.1H82.83l0-1.69A4.28,4.28,0,0,1,81,21a5.89,5.89,0,0,1-2.6.54m1-3.23a3.29,3.29,0,0,0,2.52-1.07,3.89,3.89,0,0,0,1-2.76,3.91,3.91,0,0,0-1-2.74,3.57,3.57,0,0,0-5.08,0,3.91,3.91,0,0,0-1,2.74,3.89,3.89,0,0,0,1,2.76,3.3,3.3,0,0,0,2.53,1.07" style="fill:#434f69"/><polygon points="1.64 29.36 5.63 29.36 5.63 45.87 14.59 45.87 14.59 49.15 1.64 49.15 1.64 29.36" style="fill:#434f69"/><path d="M21.65,49.57a4.45,4.45,0,0,1-3.59-1.45,6.28,6.28,0,0,1-1.23-4.18v-8h3.62v7.37c0,2.07.79,3.11,2.37,3.11a2.41,2.41,0,0,0,2-.88A3.81,3.81,0,0,0,25.53,43V35.89h3.62V49.15H25.66l0-1.61A3.76,3.76,0,0,1,24,49.05a5.18,5.18,0,0,1-2.38.52" style="fill:#434f69"/><path d="M38.84,49.57a4.87,4.87,0,0,1-3.68-1.26A5.52,5.52,0,0,1,34,44.44V38.89H31.39v-3H34V32.3h3.62v3.59h4.14v3H37.59v4.89a3.18,3.18,0,0,0,.47,2,1.89,1.89,0,0,0,1.58.61A4.93,4.93,0,0,0,42,45.79l.39,3a5.45,5.45,0,0,1-1.55.55,9.2,9.2,0,0,1-2,.21" style="fill:#434f69"/><path d="M45,28.05h3.62v9.3A3.68,3.68,0,0,1,50.21,36a5.33,5.33,0,0,1,2.33-.48,4.46,4.46,0,0,1,3.58,1.44,6.25,6.25,0,0,1,1.24,4.18v8H53.74V41.78c0-2.07-.79-3.1-2.37-3.1a2.47,2.47,0,0,0-2,.87A3.78,3.78,0,0,0,48.63,42v7.14H45Z" style="fill:#434f69"/><path d="M67.57,49.57a9.15,9.15,0,0,1-4-.84,6.13,6.13,0,0,1-2.7-2.43,7.18,7.18,0,0,1-1-3.76,7.74,7.74,0,0,1,.83-3.61,6.35,6.35,0,0,1,2.37-2.53,6.78,6.78,0,0,1,3.57-.92,6.66,6.66,0,0,1,3.3.79,5.58,5.58,0,0,1,2.21,2.28,7.35,7.35,0,0,1,.79,3.52,8.34,8.34,0,0,1-.13,1.56H63.45q.67,3,4.51,3a10.59,10.59,0,0,0,2.33-.25,8,8,0,0,0,2-.71l.37,2.83a8.18,8.18,0,0,1-2.29.81,13.74,13.74,0,0,1-2.84.29m1.9-8.47a3.3,3.3,0,0,0-.9-2.12,2.78,2.78,0,0,0-2-.74,2.9,2.9,0,0,0-2.06.74,3.56,3.56,0,0,0-1,2.12Z" style="fill:#434f69"/><path d="M75.7,35.89h3.49l0,2.19a4.42,4.42,0,0,1,1.47-1.8,3.82,3.82,0,0,1,2.15-.62,4.26,4.26,0,0,1,1.54.28l-.31,3.42A4.45,4.45,0,0,0,82.44,39a2.73,2.73,0,0,0-2.3,1.07,4.8,4.8,0,0,0-.82,3v6H75.7Z" style="fill:#434f69"/><path d="M90.54,49.57a5,5,0,0,1-3.42-1.12,3.85,3.85,0,0,1-1.27-3.05,4.08,4.08,0,0,1,1.48-3.28,5.69,5.69,0,0,1,3.84-1.25A8.81,8.81,0,0,1,92.9,41a8.56,8.56,0,0,1,1.58.43q0-3-3.39-3A6.86,6.86,0,0,0,87,39.83l-.29-2.92a6.84,6.84,0,0,1,2.22-1,9.69,9.69,0,0,1,2.7-.39A6.5,6.5,0,0,1,96.26,37a5.88,5.88,0,0,1,1.63,4.46v7.66H94.63l0-1.3a4.91,4.91,0,0,1-4,1.72M91.35,47a3,3,0,0,0,2.23-.84,3.51,3.51,0,0,0,.9-2.34,7.07,7.07,0,0,0-2.66-.49A3.12,3.12,0,0,0,90,43.8a1.58,1.58,0,0,0-.67,1.37,1.68,1.68,0,0,0,.55,1.34,2.21,2.21,0,0,0,1.51.48" style="fill:#434f69"/><path d="M101,35.89h3.49l0,1.64a4,4,0,0,1,1.6-1.52,5.13,5.13,0,0,1,2.41-.53,4.46,4.46,0,0,1,3.58,1.44,6.25,6.25,0,0,1,1.24,4.18v8h-3.62V41.78c0-2.07-.79-3.1-2.37-3.1a2.47,2.47,0,0,0-2,.87,3.76,3.76,0,0,0-.72,2.46v7.14H101Z" style="fill:#434f69"/><path d="M7.4,77.62a15.42,15.42,0,0,1-3.73-.46A8.84,8.84,0,0,1,.73,76l.39-3.41A10.52,10.52,0,0,0,4,73.84a11.53,11.53,0,0,0,3.2.47A5,5,0,0,0,10,73.65a2.13,2.13,0,0,0,1-1.87,2,2,0,0,0-.82-1.64,11.49,11.49,0,0,0-3.11-1.35,11.21,11.21,0,0,1-4.61-2.42,5.1,5.1,0,0,1-1.38-3.73,5.15,5.15,0,0,1,.85-2.94,5.47,5.47,0,0,1,2.46-2A9.15,9.15,0,0,1,8.15,57a13.09,13.09,0,0,1,3.13.39,11,11,0,0,1,2.79,1.07l-.55,3.31A10.83,10.83,0,0,0,11,60.7a9.82,9.82,0,0,0-2.7-.4,4.32,4.32,0,0,0-2.51.6,2,2,0,0,0-.85,1.72,1.94,1.94,0,0,0,.33,1.16,2.89,2.89,0,0,0,1.07.82,16,16,0,0,0,2.12.8,13,13,0,0,1,5,2.57A5,5,0,0,1,15,71.73a5.15,5.15,0,0,1-2,4.31A8.76,8.76,0,0,1,7.4,77.62" style="fill:#434f69"/><path d="M24.87,77.62a9.28,9.28,0,0,1-4-.83,6.21,6.21,0,0,1-2.7-2.44,7.18,7.18,0,0,1-1-3.76A7.66,7.66,0,0,1,18,67a6.35,6.35,0,0,1,2.37-2.53,6.82,6.82,0,0,1,3.57-.92,6.59,6.59,0,0,1,3.29.79,5.54,5.54,0,0,1,2.22,2.28,7.35,7.35,0,0,1,.79,3.52,8.34,8.34,0,0,1-.13,1.56H20.76q.68,3,4.51,3a10.66,10.66,0,0,0,2.33-.25,8.31,8.31,0,0,0,2-.71L30,76.53a8.47,8.47,0,0,1-2.3.8,13.67,13.67,0,0,1-2.84.29m1.91-8.47a3.3,3.3,0,0,0-.9-2.12,2.85,2.85,0,0,0-2.05-.74,2.91,2.91,0,0,0-2,.74,3.62,3.62,0,0,0-1.05,2.12Z" style="fill:#434f69"/><path d="M33.26,64h3.49l0,1.64a3.9,3.9,0,0,1,1.63-1.54,5.22,5.22,0,0,1,2.41-.52,4.15,4.15,0,0,1,4.06,2.37,4.11,4.11,0,0,1,1.71-1.72,5.13,5.13,0,0,1,2.54-.65A4.57,4.57,0,0,1,52.75,65,6.22,6.22,0,0,1,54,69.15v8H50.38V69.83a3.8,3.8,0,0,0-.58-2.34A2.06,2.06,0,0,0,48,66.73a2.28,2.28,0,0,0-1.89.89,3.9,3.9,0,0,0-.69,2.45V77.2H41.83V69.83a3.88,3.88,0,0,0-.56-2.34,2.06,2.06,0,0,0-1.78-.76,2.3,2.3,0,0,0-1.92.89A3.85,3.85,0,0,0,36.88,70V77.2H33.26Z" style="fill:#434f69"/><path d="M59.44,61.24a2.11,2.11,0,0,1-1.55-.62,2.12,2.12,0,0,1,0-3,2.3,2.3,0,0,1,3.1,0,2,2,0,0,1,.61,1.49A2,2,0,0,1,61,60.64a2.12,2.12,0,0,1-1.55.6M57.64,64h3.62V77.2H57.64Z" style="fill:#434f69"/><path d="M65.12,64h3.49l0,1.64a3.87,3.87,0,0,1,1.6-1.53,5.22,5.22,0,0,1,2.41-.53A4.47,4.47,0,0,1,76.23,65a6.3,6.3,0,0,1,1.24,4.18v8H73.85V69.83c0-2.06-.79-3.1-2.37-3.1a2.45,2.45,0,0,0-2,.88,3.76,3.76,0,0,0-.72,2.46V77.2H65.12Z" style="fill:#434f69"/><path d="M84.63,77.62A5,5,0,0,1,81.2,76.5a3.87,3.87,0,0,1-1.26-3,4.1,4.1,0,0,1,1.47-3.28,5.74,5.74,0,0,1,3.84-1.25,9.66,9.66,0,0,1,1.74.17,9,9,0,0,1,1.57.43q0-3-3.38-3A6.91,6.91,0,0,0,81,67.88L80.75,65a6.78,6.78,0,0,1,2.21-1,9.76,9.76,0,0,1,2.71-.39,6.51,6.51,0,0,1,4.68,1.55A5.88,5.88,0,0,1,92,69.54V77.2H88.72l0-1.3a4.92,4.92,0,0,1-4,1.72M85.44,75a3,3,0,0,0,2.22-.83,3.46,3.46,0,0,0,.9-2.35,7,7,0,0,0-2.65-.49,3.17,3.17,0,0,0-1.87.48,1.6,1.6,0,0,0-.66,1.37,1.7,1.7,0,0,0,.54,1.34,2.23,2.23,0,0,0,1.52.48" style="fill:#434f69"/><path d="M95,64h3.49l0,2.18A4.18,4.18,0,0,1,100,64.34a3.73,3.73,0,0,1,2.15-.63,4.1,4.1,0,0,1,1.54.29l-.32,3.41a4.42,4.42,0,0,0-1.61-.31,2.75,2.75,0,0,0-2.31,1.06,4.84,4.84,0,0,0-.82,3v6H95Z" style="fill:#434f69"/><path d="M107.86,83.82a6.54,6.54,0,0,1-1.49-.16,3.27,3.27,0,0,1-1.11-.41l.47-3.1a3.78,3.78,0,0,0,1.72.39,2.16,2.16,0,0,0,1.6-.62,7.16,7.16,0,0,0,1.31-2.3l.47-1.12L105.29,64h3.93l3.52,8.93L116,64h3.88l-5.81,14a19,19,0,0,1-1.86,3.58,5.67,5.67,0,0,1-1.91,1.79,5.13,5.13,0,0,1-2.43.54" style="fill:#434f69"/><path d="M5.72,106.41a6.56,6.56,0,0,1-2.95-.65,4.91,4.91,0,0,1-2-1.88A5.5,5.5,0,0,1,0,101a5.69,5.69,0,0,1,.72-2.87,5.15,5.15,0,0,1,2.05-2,6.46,6.46,0,0,1,3.11-.72,8.25,8.25,0,0,1,1.91.23,7.63,7.63,0,0,1,1.72.63l-.29,1.54a6.55,6.55,0,0,0-1.64-.62A7.86,7.86,0,0,0,5.77,97a4.28,4.28,0,0,0-2,.48,3.52,3.52,0,0,0-1.39,1.37A4.18,4.18,0,0,0,1.82,101a3.84,3.84,0,0,0,1.08,2.87,4,4,0,0,0,2.91,1.05,7.31,7.31,0,0,0,1.09-.07A6.88,6.88,0,0,0,8,104.57v-2.66H5.77v-1.46h4v5.19a10.48,10.48,0,0,1-4,.77" style="fill:#434f69"/><polygon points="12.99 95.6 19.82 95.6 19.82 97.07 14.67 97.07 14.67 100.09 19.26 100.09 19.26 101.56 14.67 101.56 14.67 104.78 20.03 104.78 20.03 106.26 12.99 106.26 12.99 95.6" style="fill:#434f69"/><polygon points="25.57 97.07 22.05 97.07 22.05 95.6 30.84 95.6 30.84 97.07 27.32 97.07 27.32 106.26 25.57 106.26 25.57 97.07" style="fill:#434f69"/><polygon points="36.57 97.07 33.05 97.07 33.05 95.6 41.84 95.6 41.84 97.07 38.32 97.07 38.32 106.26 36.57 106.26 36.57 97.07" style="fill:#434f69"/><polygon points="47.62 101.74 43.68 95.6 45.63 95.6 48.54 100.38 51.48 95.6 53.34 95.6 49.37 101.75 49.37 106.26 47.62 106.26 47.62 101.74" style="fill:#434f69"/><path d="M58.52,106.48a8.16,8.16,0,0,1-1.93-.24,5.51,5.51,0,0,1-1.58-.63l.2-1.57a5.9,5.9,0,0,0,1.57.67,6,6,0,0,0,1.67.26,2.89,2.89,0,0,0,1.66-.41,1.31,1.31,0,0,0,.59-1.15,1.25,1.25,0,0,0-.48-1,6.3,6.3,0,0,0-1.82-.8,6.16,6.16,0,0,1-2.47-1.29,2.76,2.76,0,0,1-.72-2,2.66,2.66,0,0,1,.44-1.52,2.85,2.85,0,0,1,1.27-1,4.76,4.76,0,0,1,2-.38,6.65,6.65,0,0,1,1.64.21,5.84,5.84,0,0,1,1.46.55l-.27,1.53a5.71,5.71,0,0,0-1.36-.56,5.32,5.32,0,0,0-1.43-.21,2.64,2.64,0,0,0-1.5.36,1.22,1.22,0,0,0-.52,1,1.24,1.24,0,0,0,.2.73,1.67,1.67,0,0,0,.63.51A7.46,7.46,0,0,0,59,100a9.47,9.47,0,0,1,2.08.91A3,3,0,0,1,62.13,102a3.06,3.06,0,0,1-.14,3,3.15,3.15,0,0,1-1.36,1.08,5.44,5.44,0,0,1-2.11.38" style="fill:#434f69"/><path d="M65.4,95.6h3.9a3.86,3.86,0,0,1,2.47.7,2.42,2.42,0,0,1,.88,2,2.25,2.25,0,0,1-1.37,2.24,2.67,2.67,0,0,1,1.92,2.64,2.82,2.82,0,0,1-1,2.28,4.18,4.18,0,0,1-2.74.8H65.4ZM67.06,100h1.83a2.44,2.44,0,0,0,1.53-.39,1.48,1.48,0,0,0,.48-1.22,1.17,1.17,0,0,0-.46-1A2.38,2.38,0,0,0,69,97h-2Zm0,4.8h2.37a2.31,2.31,0,0,0,1.48-.41,1.53,1.53,0,0,0,.5-1.23c0-1.14-.72-1.71-2.14-1.71H67.06Z" style="fill:#434f69"/><path d="M80.44,106.48a4.51,4.51,0,0,1-3.38-1.23,4.66,4.66,0,0,1-1.21-3.44V95.6H77.6v6.07a3.58,3.58,0,0,0,.73,2.43,3.23,3.23,0,0,0,4.28,0,3.53,3.53,0,0,0,.73-2.43V95.6h1.75v6.21a4.26,4.26,0,0,1-4.65,4.67" style="fill:#434f69"/><path d="M88.31,95.6h3.28a4.07,4.07,0,0,1,2.78.89,3,3,0,0,1,1,2.42,3.11,3.11,0,0,1-1.89,2.89l3,4.46H94.41L91.9,102.2a5,5,0,0,1-.7,0H90v4H88.31ZM90,100.81h1.3q2.4,0,2.4-1.89a1.72,1.72,0,0,0-.58-1.42A2.74,2.74,0,0,0,91.38,97H90Z" style="fill:#434f69"/><path d="M104,106.41a6.57,6.57,0,0,1-3-.65,4.91,4.91,0,0,1-2-1.88,5.5,5.5,0,0,1-.74-2.87,5.69,5.69,0,0,1,.72-2.87,5.15,5.15,0,0,1,2-2,6.49,6.49,0,0,1,3.11-.72,8.25,8.25,0,0,1,1.91.23,7.63,7.63,0,0,1,1.72.63l-.29,1.54a6.55,6.55,0,0,0-1.64-.62A7.86,7.86,0,0,0,104,97a4.21,4.21,0,0,0-2,.48,3.48,3.48,0,0,0-1.4,1.37,4.17,4.17,0,0,0-.5,2.09,3.83,3.83,0,0,0,1.07,2.87,4,4,0,0,0,2.91,1.05,7.22,7.22,0,0,0,1.09-.07,6.88,6.88,0,0,0,1.11-.23v-2.66H104v-1.46h4v5.19a10.43,10.43,0,0,1-4,.77" style="fill:#434f69"/><polygon points="113.45 102.26 110.96 102.26 110.96 100.87 113.45 100.87 113.45 98.19 114.94 98.19 114.94 100.87 117.44 100.87 117.44 102.26 114.94 102.26 114.94 104.94 113.45 104.94 113.45 102.26" style="fill:#434f69"/><path d="M.63,113.63H3.94a4.59,4.59,0,0,1,2,.41,3.14,3.14,0,0,1,1.33,1.19A3.27,3.27,0,0,1,7.73,117a3.53,3.53,0,0,1-.46,1.79,3.21,3.21,0,0,1-1.33,1.22,4.41,4.41,0,0,1-2,.44H2.31v3.8H.63Zm1.68,5.43H3.68a2.57,2.57,0,0,0,1.73-.51A1.81,1.81,0,0,0,6,117.07a1.89,1.89,0,0,0-.59-1.5,2.61,2.61,0,0,0-1.73-.51H2.31Z" style="fill:#434f69"/><polygon points="10.21 113.63 11.96 113.63 11.96 118.03 17.65 118.03 17.65 113.63 19.4 113.63 19.4 124.29 17.65 124.29 17.65 119.51 11.96 119.51 11.96 124.29 10.21 124.29 10.21 113.63" style="fill:#434f69"/><rect x="22.96" y="113.63" width="1.75" height="10.66" style="fill:#434f69"/><polygon points="28.28 113.63 30.03 113.63 30.03 122.75 35.04 122.75 35.04 124.29 28.28 124.29 28.28 113.63" style="fill:#434f69"/><path d="M41.61,113.63h1.88l4.28,10.66H45.91l-1.13-3H40.24l-1.12,3H37.34Zm2.64,6.28-1.75-4.65-1.74,4.65Z" style="fill:#434f69"/><path d="M50,113.63h4a7,7,0,0,1,3,.62,4.53,4.53,0,0,1,2,1.83,5.55,5.55,0,0,1,.7,2.87,5,5,0,0,1-1.55,3.94,6.36,6.36,0,0,1-4.39,1.4H50Zm1.75,9.22h2q4.13,0,4.12-3.89t-4.11-3.89h-2Z" style="fill:#434f69"/><polygon points="62.13 113.63 68.97 113.63 68.97 115.1 63.82 115.1 63.82 118.12 68.4 118.12 68.4 119.59 63.82 119.59 63.82 122.82 69.18 122.82 69.18 124.29 62.13 124.29 62.13 113.63" style="fill:#434f69"/><polygon points="72.34 113.63 74.1 113.63 74.1 122.75 79.11 122.75 79.11 124.29 72.34 124.29 72.34 113.63" style="fill:#434f69"/><path d="M81.8,113.63h3.31a4.52,4.52,0,0,1,2,.41,3.16,3.16,0,0,1,1.34,1.19A3.36,3.36,0,0,1,88.9,117a3.44,3.44,0,0,1-.47,1.79,3.25,3.25,0,0,1-1.32,1.22,4.45,4.45,0,0,1-2,.44H83.48v3.8H81.8Zm1.68,5.43h1.36a2.58,2.58,0,0,0,1.74-.51,2.16,2.16,0,0,0,0-3,2.57,2.57,0,0,0-1.73-.51H83.48Z" style="fill:#434f69"/><polygon points="91.38 113.63 93.13 113.63 93.13 118.03 98.81 118.03 98.81 113.63 100.57 113.63 100.57 124.29 98.81 124.29 98.81 119.51 93.13 119.51 93.13 124.29 91.38 124.29 91.38 113.63" style="fill:#434f69"/><rect x="104.13" y="113.63" width="1.75" height="10.66" style="fill:#434f69"/><path d="M112.42,113.63h1.88l4.27,10.66h-1.86l-1.12-3H111l-1.12,3h-1.78Zm2.63,6.28-1.75-4.65-1.74,4.65Z" style="fill:#434f69"/></svg>